{
    "asset" : {
        "generator" : "Khronos glTF Blender I/O v3.4.50",
        "version" : "2.0"
    },
    "scene" : 0,
    "scenes" : [
        {
            "name" : "Scene",
            "nodes" : [
                0
            ]
        }
    ],
    "nodes" : [
        {
            "mesh" : 0,
            "name" : "HSM0004.001",
            "translation" : [
                0,
                7.373053073883057,
                4.564270973205566
            ]
        }
    ],
    "meshes" : [
        {
            "name" : "Cylinder.001",
            "primitives" : [
                {
                    "attributes" : {
                        "POSITION" : 0,
                        "NORMAL" : 1
                    },
                    "indices" : 2
                }
            ]
        }
    ],
    "accessors" : [
        {
            "bufferView" : 0,
            "componentType" : 5126,
            "count" : 1684,
            "max" : [
                34.47395706176758,
                10.776063919067383,
                9.789901733398438
            ],
            "min" : [
                -33.68801498413086,
                -14.823774337768555,
                -19.216575622558594
            ],
            "type" : "VEC3"
        },
        {
            "bufferView" : 1,
            "componentType" : 5126,
            "count" : 1684,
            "type" : "VEC3"
        },
        {
            "bufferView" : 2,
            "componentType" : 5123,
            "count" : 5196,
            "type" : "SCALAR"
        }
    ],
    "bufferViews" : [
        {
            "buffer" : 0,
            "byteLength" : 20208,
            "byteOffset" : 0,
            "target" : 34962
        },
        {
            "buffer" : 0,
            "byteLength" : 20208,
            "byteOffset" : 20208,
            "target" : 34962
        },
        {
            "buffer" : 0,
            "byteLength" : 10392,
            "byteOffset" : 40416,
            "target" : 34963
        }
    ],
    "buffers" : [
        {
            "byteLength" : 50808,
            "uri" : "data:application/octet-stream;base64,"
        }
    ]
}
